<svg xmlns="http://www.w3.org/2000/svg" viewBox="0 0 920 1000" width="920" height="1000" font-family="-apple-system, BlinkMacSystemFont, system-ui, sans-serif">
  <style>
    .title       { font-size: 17px; font-weight: 700; fill: #2a2a2a; }
    .subtitle    { font-size: 11px; fill: #6a6a6a; }
    .summary     { font-size: 12px; fill: #4a4a4a; font-weight: 600; }
    .section-title { font-size: 14px; font-weight: 700; fill: #2a2a2a; }
    .section-total { font-size: 12px; font-weight: 400; fill: #8a8a8a; }
    .bar-label   { font-size: 12px; fill: #4a4a4a; }
    .bar         { fill: #b8860b; }
    .bar-value   { font-size: 12px; font-weight: 600; fill: #2a2a2a; }
    .empty       { font-size: 12px; fill: #8a8a8a; font-style: italic; }
  </style>

  <text x="40" y="30" class="title">Engagement — past 7 days</text>
  <text x="40" y="48" class="subtitle">App Insights "robbmorgan" custom events · generated 2026-05-23</text>
  <text x="40" y="72" class="summary">32 hotspot clicks · 2 post opens · 7 music plays · 1 app views · 1 easter eggs</text>

  <text x="40" y="96" class="section-title">Hotspot clicks (which desk objects get explored) <tspan class="section-total">— 32 events</tspan></text>
  <text x="40" y="120" class="bar-label">Sound toggle</text>
  <rect x="260" y="108" width="580.0" height="16" rx="2" class="bar"/>
  <text x="848.0" y="120" class="bar-value">7</text>
  <text x="40" y="144" class="bar-label">Music</text>
  <rect x="260" y="132" width="414.3" height="16" rx="2" class="bar"/>
  <text x="682.3" y="144" class="bar-value">5</text>
  <text x="40" y="168" class="bar-label">Thoughts</text>
  <rect x="260" y="156" width="331.4" height="16" rx="2" class="bar"/>
  <text x="599.4" y="168" class="bar-value">4</text>
  <text x="40" y="192" class="bar-label">Scenes</text>
  <rect x="260" y="180" width="248.6" height="16" rx="2" class="bar"/>
  <text x="516.6" y="192" class="bar-value">3</text>
  <text x="40" y="216" class="bar-label">Resume</text>
  <rect x="260" y="204" width="248.6" height="16" rx="2" class="bar"/>
  <text x="516.6" y="216" class="bar-value">3</text>
  <text x="40" y="240" class="bar-label">NOT ME!</text>
  <rect x="260" y="228" width="248.6" height="16" rx="2" class="bar"/>
  <text x="516.6" y="240" class="bar-value">3</text>
  <text x="40" y="264" class="bar-label">Novels</text>
  <rect x="260" y="252" width="82.9" height="16" rx="2" class="bar"/>
  <text x="350.9" y="264" class="bar-value">1</text>
  <text x="40" y="288" class="bar-label">Take a Break</text>
  <rect x="260" y="276" width="82.9" height="16" rx="2" class="bar"/>
  <text x="350.9" y="288" class="bar-value">1</text>
  <text x="40" y="312" class="bar-label">Mobile Apps</text>
  <rect x="260" y="300" width="82.9" height="16" rx="2" class="bar"/>
  <text x="350.9" y="312" class="bar-value">1</text>
  <text x="40" y="336" class="bar-label">Code</text>
  <rect x="260" y="324" width="82.9" height="16" rx="2" class="bar"/>
  <text x="350.9" y="336" class="bar-value">1</text>
  <text x="40" y="360" class="bar-label">Certs</text>
  <rect x="260" y="348" width="82.9" height="16" rx="2" class="bar"/>
  <text x="350.9" y="360" class="bar-value">1</text>
  <text x="40" y="384" class="bar-label">The Desk</text>
  <rect x="260" y="372" width="82.9" height="16" rx="2" class="bar"/>
  <text x="350.9" y="384" class="bar-value">1</text>
  <text x="40" y="408" class="bar-label">Contact</text>
  <rect x="260" y="396" width="82.9" height="16" rx="2" class="bar"/>
  <text x="350.9" y="408" class="bar-value">1</text>
  <text x="40" y="448" class="section-title">Thoughts posts (which essays get opened) <tspan class="section-total">— 2 events</tspan></text>
  <text x="40" y="472" class="bar-label">your-resume</text>
  <rect x="260" y="460" width="580.0" height="16" rx="2" class="bar"/>
  <text x="848.0" y="472" class="bar-value">1</text>
  <text x="40" y="496" class="bar-label">pipeline-as-a-product</text>
  <rect x="260" y="484" width="580.0" height="16" rx="2" class="bar"/>
  <text x="848.0" y="496" class="bar-value">1</text>
  <text x="40" y="536" class="section-title">Mobile apps (which apps get viewed) <tspan class="section-total">— 1 event</tspan></text>
  <text x="40" y="560" class="bar-label">rocket</text>
  <rect x="260" y="548" width="580.0" height="16" rx="2" class="bar"/>
  <text x="848.0" y="560" class="bar-value">1</text>
  <text x="40" y="600" class="section-title">Music plays (audio) <tspan class="section-total">— 7 events</tspan></text>
  <text x="40" y="624" class="bar-label">SoCal Livin'</text>
  <rect x="260" y="612" width="580.0" height="16" rx="2" class="bar"/>
  <text x="848.0" y="624" class="bar-value">5</text>
  <text x="40" y="648" class="bar-label">Codin' in Cali</text>
  <rect x="260" y="636" width="232.0" height="16" rx="2" class="bar"/>
  <text x="500.0" y="648" class="bar-value">2</text>
  <text x="40" y="688" class="section-title">Time-of-day picker usage <tspan class="section-total">— 10 events</tspan></text>
  <text x="40" y="712" class="bar-label">afternoon (mobile_cycle)</text>
  <rect x="260" y="700" width="580.0" height="16" rx="2" class="bar"/>
  <text x="848.0" y="712" class="bar-value">3</text>
  <text x="40" y="736" class="bar-label">evening (mobile_cycle)</text>
  <rect x="260" y="724" width="386.7" height="16" rx="2" class="bar"/>
  <text x="654.7" y="736" class="bar-value">2</text>
  <text x="40" y="760" class="bar-label">night (mobile_cycle)</text>
  <rect x="260" y="748" width="386.7" height="16" rx="2" class="bar"/>
  <text x="654.7" y="760" class="bar-value">2</text>
  <text x="40" y="784" class="bar-label">morning (mobile_cycle)</text>
  <rect x="260" y="772" width="386.7" height="16" rx="2" class="bar"/>
  <text x="654.7" y="784" class="bar-value">2</text>
  <text x="40" y="808" class="bar-label">night (picker)</text>
  <rect x="260" y="796" width="193.3" height="16" rx="2" class="bar"/>
  <text x="461.3" y="808" class="bar-value">1</text>
  <text x="40" y="848" class="section-title">Ambient sound toggle <tspan class="section-total">— 7 events</tspan></text>
  <text x="40" y="872" class="bar-label">sound off</text>
  <rect x="260" y="860" width="580.0" height="16" rx="2" class="bar"/>
  <text x="848.0" y="872" class="bar-value">7</text>
  <text x="40" y="912" class="section-title">Easter egg — Just Like Me video reveal <tspan class="section-total">— 1 event</tspan></text>
  <text x="40" y="936" class="bar-label">Just Like Me</text>
  <rect x="260" y="924" width="580.0" height="16" rx="2" class="bar"/>
  <text x="848.0" y="936" class="bar-value">1</text>
</svg>
