<svg xmlns="http://www.w3.org/2000/svg" viewBox="0 0 720 340" width="720" height="340" font-family="-apple-system, BlinkMacSystemFont, system-ui, sans-serif">
  <style>
    .title { font-size: 16px; font-weight: 700; fill: #2a2a2a; }
    .subtitle { font-size: 11px; fill: #6a6a6a; }
    .axis { stroke: #c8c8c8; stroke-width: 1; }
    .gridline { stroke: #e8e8e8; stroke-width: 1; stroke-dasharray: 2,3; }
    .bar { fill: #b8860b; }
    .bar-zero { fill: #e8d8b8; }
    .day-label { font-size: 11px; fill: #4a4a4a; text-anchor: middle; }
    .value-label { font-size: 11px; font-weight: 600; fill: #2a2a2a; text-anchor: middle; }
    .axis-label { font-size: 10px; fill: #8a8a8a; text-anchor: end; }
    .footer { font-size: 11px; fill: #6a6a6a; }
  </style>
  <text x="40" y="28" class="title">Unique users by day — past 7 days</text>
  <text x="40" y="44" class="subtitle">union(pageViews, customEvents) · dcount(user_Id) · App Insights "robbmorgan" · generated 2026-05-22</text>
  <line x1="60" y1="260" x2="700" y2="260" class="axis" />
  <line x1="60" y1="80" x2="60" y2="260" class="axis" />
  <text x="54" y="264.0" class="axis-label">0</text>
  <line x1="60" y1="216.8" x2="700" y2="216.8" class="gridline" />
  <text x="54" y="220.8" class="axis-label">6</text>
  <line x1="60" y1="173.6" x2="700" y2="173.6" class="gridline" />
  <text x="54" y="177.6" class="axis-label">12</text>
  <line x1="60" y1="130.4" x2="700" y2="130.4" class="gridline" />
  <text x="54" y="134.4" class="axis-label">18</text>
  <line x1="60" y1="80.0" x2="700" y2="80.0" class="gridline" />
  <text x="54" y="84.0" class="axis-label">25</text>
  <rect x="70.0" y="259.0" width="71.4" height="1.0" class="bar-zero" />
  <text x="105.7" y="252.0" class="value-label">0</text>
  <text x="105.7" y="278" class="day-label">May 16</text>
  <rect x="161.4" y="259.0" width="71.4" height="1.0" class="bar-zero" />
  <text x="197.1" y="252.0" class="value-label">0</text>
  <text x="197.1" y="278" class="day-label">May 17</text>
  <rect x="252.9" y="137.6" width="71.4" height="122.4" class="bar" />
  <text x="288.6" y="129.6" class="value-label">17</text>
  <text x="288.6" y="278" class="day-label">May 18</text>
  <rect x="344.3" y="80.0" width="71.4" height="180.0" class="bar" />
  <text x="380.0" y="72.0" class="value-label">25</text>
  <text x="380.0" y="278" class="day-label">May 19</text>
  <rect x="435.7" y="195.2" width="71.4" height="64.8" class="bar" />
  <text x="471.4" y="187.2" class="value-label">9</text>
  <text x="471.4" y="278" class="day-label">May 20</text>
  <rect x="527.1" y="231.2" width="71.4" height="28.8" class="bar" />
  <text x="562.9" y="223.2" class="value-label">4</text>
  <text x="562.9" y="278" class="day-label">May 21</text>
  <rect x="618.6" y="152.0" width="71.4" height="108.0" class="bar" />
  <text x="654.3" y="144.0" class="value-label">15</text>
  <text x="654.3" y="278" class="day-label">May 22*</text>
  <text x="40" y="304" class="footer">No data May 16–May 17: App Insights resource didn't yet exist (created 2026-05-18).</text>
  <text x="40" y="320" class="footer">* today (partial). Period total: 66 unique users (some span multiple days, so this is ≤ sum of daily bars).</text>
</svg>
