<svg xmlns="http://www.w3.org/2000/svg" viewBox="0 0 720 340" width="720" height="340" font-family="-apple-system, BlinkMacSystemFont, system-ui, sans-serif">
  <style>
    .title { font-size: 16px; font-weight: 700; fill: #2a2a2a; }
    .subtitle { font-size: 11px; fill: #6a6a6a; }
    .axis { stroke: #c8c8c8; stroke-width: 1; }
    .gridline { stroke: #e8e8e8; stroke-width: 1; stroke-dasharray: 2,3; }
    .bar { fill: #b8860b; }
    .bar-zero { fill: #e8d8b8; }
    .day-label { font-size: 11px; fill: #4a4a4a; text-anchor: middle; }
    .value-label { font-size: 11px; font-weight: 600; fill: #2a2a2a; text-anchor: middle; }
    .value-label-small { font-size: 9px; font-weight: 600; fill: #2a2a2a; text-anchor: middle; }
    .axis-label { font-size: 10px; fill: #8a8a8a; text-anchor: end; }
    .footer { font-size: 11px; fill: #6a6a6a; }
  </style>
  <text x="40" y="28" class="title">Unique users by day — past 30 days</text>
  <text x="40" y="44" class="subtitle">union(pageViews, customEvents) · dcount(user_Id) · App Insights "robbmorgan" · generated 2026-05-26</text>
  <line x1="60" y1="260" x2="700" y2="260" class="axis" />
  <line x1="60" y1="80" x2="60" y2="260" class="axis" />
  <text x="54" y="264.0" class="axis-label">0</text>
  <line x1="60" y1="216.8" x2="700" y2="216.8" class="gridline" />
  <text x="54" y="220.8" class="axis-label">6</text>
  <line x1="60" y1="173.6" x2="700" y2="173.6" class="gridline" />
  <text x="54" y="177.6" class="axis-label">12</text>
  <line x1="60" y1="130.4" x2="700" y2="130.4" class="gridline" />
  <text x="54" y="134.4" class="axis-label">18</text>
  <line x1="60" y1="80.0" x2="700" y2="80.0" class="gridline" />
  <text x="54" y="84.0" class="axis-label">25</text>
  <rect x="62.0" y="259.0" width="17.3" height="1.0" class="bar-zero" />
  <rect x="83.3" y="259.0" width="17.3" height="1.0" class="bar-zero" />
  <rect x="104.7" y="259.0" width="17.3" height="1.0" class="bar-zero" />
  <rect x="126.0" y="259.0" width="17.3" height="1.0" class="bar-zero" />
  <text x="134.7" y="278" class="day-label">30</text>
  <rect x="147.3" y="259.0" width="17.3" height="1.0" class="bar-zero" />
  <text x="156.0" y="278" class="day-label">1</text>
  <rect x="168.7" y="259.0" width="17.3" height="1.0" class="bar-zero" />
  <rect x="190.0" y="259.0" width="17.3" height="1.0" class="bar-zero" />
  <rect x="211.3" y="259.0" width="17.3" height="1.0" class="bar-zero" />
  <rect x="232.7" y="259.0" width="17.3" height="1.0" class="bar-zero" />
  <text x="241.3" y="278" class="day-label">5</text>
  <rect x="254.0" y="259.0" width="17.3" height="1.0" class="bar-zero" />
  <rect x="275.3" y="259.0" width="17.3" height="1.0" class="bar-zero" />
  <rect x="296.7" y="259.0" width="17.3" height="1.0" class="bar-zero" />
  <rect x="318.0" y="259.0" width="17.3" height="1.0" class="bar-zero" />
  <rect x="339.3" y="259.0" width="17.3" height="1.0" class="bar-zero" />
  <text x="348.0" y="278" class="day-label">10</text>
  <rect x="360.7" y="259.0" width="17.3" height="1.0" class="bar-zero" />
  <rect x="382.0" y="259.0" width="17.3" height="1.0" class="bar-zero" />
  <rect x="403.3" y="259.0" width="17.3" height="1.0" class="bar-zero" />
  <rect x="424.7" y="259.0" width="17.3" height="1.0" class="bar-zero" />
  <rect x="446.0" y="259.0" width="17.3" height="1.0" class="bar-zero" />
  <text x="454.7" y="278" class="day-label">15</text>
  <rect x="467.3" y="259.0" width="17.3" height="1.0" class="bar-zero" />
  <rect x="488.7" y="259.0" width="17.3" height="1.0" class="bar-zero" />
  <rect x="510.0" y="137.6" width="17.3" height="122.4" class="bar" />
  <text x="518.7" y="131.6" class="value-label-small">17</text>
  <rect x="531.3" y="80.0" width="17.3" height="180.0" class="bar" />
  <text x="540.0" y="74.0" class="value-label-small">25</text>
  <rect x="552.7" y="195.2" width="17.3" height="64.8" class="bar" />
  <text x="561.3" y="189.2" class="value-label-small">9</text>
  <text x="561.3" y="278" class="day-label">20</text>
  <rect x="574.0" y="231.2" width="17.3" height="28.8" class="bar" />
  <text x="582.7" y="225.2" class="value-label-small">4</text>
  <rect x="595.3" y="144.8" width="17.3" height="115.2" class="bar" />
  <text x="604.0" y="138.8" class="value-label-small">16</text>
  <rect x="616.7" y="224.0" width="17.3" height="36.0" class="bar" />
  <text x="625.3" y="218.0" class="value-label-small">5</text>
  <rect x="638.0" y="238.4" width="17.3" height="21.6" class="bar" />
  <text x="646.7" y="232.4" class="value-label-small">3</text>
  <rect x="659.3" y="231.2" width="17.3" height="28.8" class="bar" />
  <text x="668.0" y="225.2" class="value-label-small">4</text>
  <text x="668.0" y="278" class="day-label">25</text>
  <rect x="680.7" y="259.0" width="17.3" height="1.0" class="bar-zero" />
  <text x="689.3" y="278" class="day-label">26*</text>
  <text x="40" y="304" class="footer">No data Apr 27–May 17: App Insights resource didn't yet exist (created 2026-05-18).</text>
  <text x="40" y="320" class="footer">* current day (partial). Period total: 76 unique users (some span multiple days, so this is ≤ sum of bars).</text>
</svg>
